<svg xmlns="http://www.w3.org/2000/svg" xmlns:xlink="http://www.w3.org/1999/xlink" width="500" zoomAndPan="magnify" viewBox="0 0 375 374.999991" height="500" preserveAspectRatio="xMidYMid meet" version="1.0"><defs><g/><clipPath id="2748dc4e9b"><path d="M 117.054688 168 L 189 168 L 189 179 L 117.054688 179 Z M 117.054688 168 " clip-rule="nonzero"/></clipPath><clipPath id="e7d9058f7c"><path d="M 210 177 L 233 177 L 233 183.246094 L 210 183.246094 Z M 210 177 " clip-rule="nonzero"/></clipPath><clipPath id="ef27b01a87"><path d="M 127 177 L 151 177 L 151 183.246094 L 127 183.246094 Z M 127 177 " clip-rule="nonzero"/></clipPath><clipPath id="3492c0c893"><path d="M 154 157.746094 L 248.304688 157.746094 L 248.304688 183 L 154 183 Z M 154 157.746094 " clip-rule="nonzero"/></clipPath></defs><g clip-path="url(#2748dc4e9b)"><path fill="#ffffff" d="M 117.054688 178.179688 C 117.898438 176.648438 119.066406 175.441406 120.410156 174.398438 C 123.964844 171.652344 128.207031 170.640625 132.519531 169.980469 C 139.820312 168.863281 147.175781 168.777344 154.550781 169.113281 C 158.464844 169.289062 162.378906 169.453125 166.289062 169.636719 C 172.609375 169.925781 178.929688 170.378906 185.269531 170.222656 C 186.230469 170.199219 187.195312 169.847656 188.519531 170.195312 C 186.496094 170.976562 184.683594 171.171875 182.882812 171.332031 C 172.371094 172.25 161.726562 171.984375 151.117188 172.054688 C 144.054688 172.105469 136.996094 172.207031 130.03125 173.613281 C 125.988281 174.425781 122.148438 175.742188 118.566406 177.773438 C 118.191406 177.984375 117.789062 178.136719 117.390625 178.296875 C 117.335938 178.320312 117.242188 178.246094 117.054688 178.179688 Z M 117.054688 178.179688 " fill-opacity="1" fill-rule="nonzero"/></g><path fill="#ffffff" d="M 172.011719 166.832031 C 172.554688 166.09375 173.25 165.542969 174.023438 165.085938 C 176.0625 163.894531 178.347656 163.652344 180.644531 163.597656 C 184.53125 163.507812 188.375 163.957031 192.195312 164.628906 C 194.226562 164.980469 196.253906 165.332031 198.285156 165.691406 C 201.5625 166.269531 204.828125 166.929688 208.144531 167.273438 C 208.648438 167.328125 209.175781 167.210938 209.839844 167.480469 C 208.734375 167.753906 207.773438 167.734375 206.824219 167.691406 C 201.277344 167.464844 195.742188 166.605469 190.210938 165.933594 C 186.519531 165.484375 182.832031 165.058594 179.101562 165.324219 C 176.933594 165.476562 174.839844 165.902344 172.832031 166.722656 C 172.625 166.8125 172.398438 166.859375 172.183594 166.921875 C 172.148438 166.925781 172.105469 166.878906 172.011719 166.832031 Z M 172.011719 166.832031 " fill-opacity="1" fill-rule="nonzero"/><g clip-path="url(#e7d9058f7c)"><path fill="#ffffff" d="M 232.996094 183.199219 C 230.871094 179.714844 226.59375 177.335938 221.660156 177.335938 C 216.722656 177.335938 212.445312 179.71875 210.320312 183.199219 C 213.632812 181.871094 217.507812 181.109375 221.660156 181.109375 C 225.808594 181.109375 229.6875 181.871094 232.996094 183.199219 Z M 232.996094 183.199219 " fill-opacity="1" fill-rule="nonzero"/></g><g clip-path="url(#ef27b01a87)"><path fill="#ffffff" d="M 150.382812 183.199219 C 148.257812 179.714844 143.980469 177.335938 139.042969 177.335938 C 134.109375 177.335938 129.832031 179.71875 127.707031 183.199219 C 131.015625 181.871094 134.894531 181.109375 139.042969 181.109375 C 143.191406 181.109375 147.070312 181.871094 150.382812 183.199219 Z M 150.382812 183.199219 " fill-opacity="1" fill-rule="nonzero"/></g><g clip-path="url(#3492c0c893)"><path fill="#ffffff" d="M 247.933594 170.617188 L 247.101562 167.765625 C 246.300781 165.03125 243.289062 163.578125 240.613281 164.632812 L 236.726562 166.167969 C 233.503906 165.585938 230.296875 164.921875 227.097656 164.21875 C 217.382812 162.085938 207.773438 159.472656 197.851562 158.324219 C 189.953125 157.402344 182.132812 157.652344 174.34375 159.359375 C 167.269531 160.910156 160.914062 164.148438 154.53125 167.347656 C 154.449219 167.386719 154.417969 167.539062 154.292969 167.761719 C 156.136719 167.546875 157.664062 166.625 159.542969 166.058594 C 159.960938 165.933594 160.371094 165.789062 160.773438 165.625 C 161.488281 165.335938 162.210938 165.074219 162.941406 164.835938 C 169.449219 162.761719 176.058594 161.628906 182.828125 161.378906 C 188.011719 161.1875 193.164062 161.621094 198.277344 162.410156 C 204.289062 163.335938 210.195312 164.738281 216.054688 166.347656 C 216.355469 166.429688 216.839844 166.402344 216.84375 166.855469 C 216.84375 167.261719 216.40625 167.359375 216.105469 167.480469 C 215.066406 167.890625 214.03125 168.324219 212.957031 168.628906 C 202.296875 171.660156 191.335938 172.824219 180.34375 173.796875 C 174.324219 174.332031 168.296875 174.421875 162.261719 174.316406 C 161.976562 174.3125 161.660156 174.230469 161.339844 174.53125 C 161.964844 174.832031 162.597656 174.871094 163.226562 174.914062 C 164.730469 175.015625 166.230469 175.144531 167.734375 175.25 C 173.757812 175.671875 179.789062 175.613281 185.816406 175.320312 C 192.832031 174.980469 199.820312 174.3125 206.804688 173.632812 C 213.148438 173.019531 219.492188 172.359375 225.859375 172.019531 C 230.761719 171.753906 235.65625 171.328125 240.574219 171.832031 C 244.367188 172.222656 245.710938 173.605469 245.699219 177.328125 C 245.695312 178.472656 245.582031 179.625 245.53125 180.769531 C 245.515625 181.15625 245.441406 181.554688 245.507812 182.007812 C 245.554688 182.304688 245.964844 182.394531 246.109375 182.132812 C 246.109375 182.132812 246.109375 182.128906 246.109375 182.128906 C 247.605469 179.367188 248.371094 176.390625 248.296875 173.28125 C 248.273438 172.230469 248.160156 171.351562 247.933594 170.617188 Z M 247.933594 170.617188 " fill-opacity="1" fill-rule="nonzero"/></g><g fill="#ffffff" fill-opacity="1"><g transform="translate(146.253895, 201.706144)"><g><path d="M 6.25 -6.25 L 6.25 -12.5 L 3.125 -12.5 L 3.125 -6.25 Z M 0 0 L 0 -12.5 L 1.5625 -12.5 L 1.5625 -14.0625 L 7.8125 -14.0625 L 7.8125 -12.5 L 9.375 -12.5 L 9.375 0 L 6.25 0 L 6.25 -4.6875 L 3.125 -4.6875 L 3.125 0 Z M 0 0 "/></g></g></g><g fill="#ffffff" fill-opacity="1"><g transform="translate(158.439673, 201.706144)"><g><path d="M 1.5625 0 L 1.5625 -1.5625 L 0 -1.5625 L 0 -10.9375 L 3.125 -10.9375 L 3.125 -1.5625 L 6.25 -1.5625 L 6.25 -10.9375 L 9.375 -10.9375 L 9.375 0 Z M 1.5625 0 "/></g></g></g><g fill="#ffffff" fill-opacity="1"><g transform="translate(170.625452, 201.706144)"><g><path d="M 1.5625 0 L 1.5625 -1.5625 L 0 -1.5625 L 0 -14.0625 L 3.125 -14.0625 L 3.125 -10.9375 L 6.25 -10.9375 L 6.25 -9.375 L 3.125 -9.375 L 3.125 -1.5625 L 6.25 -1.5625 L 6.25 0 Z M 1.5625 0 "/></g></g></g><g fill="#ffffff" fill-opacity="1"><g transform="translate(179.686717, 201.706144)"><g><path d="M 6.25 -1.5625 L 6.25 -9.375 L 3.125 -9.375 L 3.125 -1.5625 Z M 1.5625 0 L 1.5625 -1.5625 L 0 -1.5625 L 0 -9.375 L 1.5625 -9.375 L 1.5625 -10.9375 L 7.8125 -10.9375 L 7.8125 -9.375 L 9.375 -9.375 L 9.375 -1.5625 L 7.8125 -1.5625 L 7.8125 0 Z M 1.5625 0 "/></g></g></g><g fill="#ffffff" fill-opacity="1"><g transform="translate(191.872497, 201.706144)"><g><path d="M 0 0 L 0 -14.0625 L 3.125 -14.0625 L 3.125 -12.5 L 4.6875 -12.5 L 4.6875 -9.375 L 6.25 -9.375 L 6.25 -12.5 L 7.8125 -12.5 L 7.8125 -14.0625 L 10.9375 -14.0625 L 10.9375 0 L 7.8125 0 L 7.8125 -7.8125 L 6.25 -7.8125 L 6.25 -4.6875 L 4.6875 -4.6875 L 4.6875 -7.8125 L 3.125 -7.8125 L 3.125 0 Z M 0 0 "/></g></g></g><g fill="#ffffff" fill-opacity="1"><g transform="translate(205.620529, 201.706144)"><g><path d="M 6.25 -1.5625 L 6.25 -4.6875 L 3.125 -4.6875 L 3.125 -1.5625 Z M 1.5625 0 L 1.5625 -1.5625 L 0 -1.5625 L 0 -4.6875 L 1.5625 -4.6875 L 1.5625 -6.25 L 6.25 -6.25 L 6.25 -9.375 L 1.5625 -9.375 L 1.5625 -10.9375 L 7.8125 -10.9375 L 7.8125 -9.375 L 9.375 -9.375 L 9.375 0 Z M 1.5625 0 "/></g></g></g><g fill="#ffffff" fill-opacity="1"><g transform="translate(217.806306, 201.706144)"><g><path d="M 0 0 L 0 -3.125 L 1.5625 -3.125 L 1.5625 -4.6875 L 3.125 -4.6875 L 3.125 -6.25 L 1.5625 -6.25 L 1.5625 -7.8125 L 0 -7.8125 L 0 -10.9375 L 3.125 -10.9375 L 3.125 -7.8125 L 6.25 -7.8125 L 6.25 -10.9375 L 9.375 -10.9375 L 9.375 -7.8125 L 7.8125 -7.8125 L 7.8125 -6.25 L 6.25 -6.25 L 6.25 -4.6875 L 7.8125 -4.6875 L 7.8125 -3.125 L 9.375 -3.125 L 9.375 0 L 6.25 0 L 6.25 -3.125 L 3.125 -3.125 L 3.125 0 Z M 0 0 "/></g></g></g><g fill="#ffffff" fill-opacity="1"><g transform="translate(122.645658, 214.860107)"><g><path d="M 3.824219 -3.207031 L 3.105469 -3.910156 C 3.046875 -3.96875 2.976562 -4 2.894531 -4 L 0.359375 -4 C 0.296875 -4 0.238281 -3.945312 0.238281 -3.878906 L 0.238281 -0.121094 C 0.238281 -0.0546875 0.296875 0 0.359375 0 L 0.910156 0 C 0.976562 0 1.03125 -0.0546875 1.03125 -0.121094 L 1.03125 -0.878906 L 2.425781 -0.878906 L 2.921875 -0.0703125 C 2.953125 -0.0234375 2.992188 0 3.039062 0 L 3.640625 0 C 3.734375 0 3.785156 -0.0898438 3.734375 -0.167969 L 3.175781 -1.046875 L 3.824219 -1.695312 C 3.871094 -1.742188 3.921875 -1.824219 3.921875 -1.902344 L 3.921875 -2.96875 C 3.921875 -3.070312 3.886719 -3.144531 3.824219 -3.207031 Z M 1.03125 -3.222656 L 2.640625 -3.222656 C 2.695312 -3.222656 2.734375 -3.207031 2.777344 -3.167969 L 3.015625 -2.910156 L 3.054688 -2.863281 C 3.070312 -2.839844 3.078125 -2.816406 3.078125 -2.785156 L 3.078125 -2.113281 C 3.078125 -2.054688 3.0625 -2.015625 3.023438 -1.976562 L 2.769531 -1.734375 C 2.71875 -1.6875 2.6875 -1.671875 2.648438 -1.671875 L 1.03125 -1.671875 Z M 1.03125 -3.222656 "/></g></g></g><g fill="#ffffff" fill-opacity="1"><g transform="translate(130.805675, 214.860107)"><g><path d="M 1.136719 -2.902344 L 1.390625 -3.144531 C 1.441406 -3.191406 1.472656 -3.207031 1.511719 -3.207031 L 3.625 -3.207031 C 3.6875 -3.207031 3.742188 -3.265625 3.742188 -3.328125 L 3.742188 -3.878906 C 3.742188 -3.945312 3.6875 -4 3.625 -4 L 1.230469 -4 C 1.136719 -4 1.070312 -3.976562 1 -3.902344 L 0.335938 -3.246094 C 0.289062 -3.199219 0.238281 -3.121094 0.238281 -3.039062 L 0.238281 -0.976562 C 0.238281 -0.871094 0.273438 -0.800781 0.335938 -0.734375 L 1 -0.0898438 C 1.054688 -0.03125 1.128906 0 1.207031 0 L 3.625 0 C 3.6875 0 3.742188 -0.0546875 3.742188 -0.121094 L 3.742188 -0.65625 C 3.742188 -0.71875 3.6875 -0.777344 3.625 -0.777344 L 1.519531 -0.777344 C 1.464844 -0.777344 1.425781 -0.792969 1.382812 -0.832031 L 1.105469 -1.136719 C 1.089844 -1.160156 1.078125 -1.183594 1.078125 -1.214844 L 1.078125 -1.625 L 3.230469 -1.625 C 3.296875 -1.625 3.351562 -1.679688 3.351562 -1.742188 L 3.351562 -2.296875 C 3.351562 -2.359375 3.296875 -2.414062 3.230469 -2.414062 L 1.078125 -2.414062 L 1.078125 -2.769531 C 1.078125 -2.824219 1.097656 -2.863281 1.136719 -2.902344 Z M 1.136719 -2.902344 "/></g></g></g><g fill="#ffffff" fill-opacity="1"><g transform="translate(138.789688, 214.860107)"><g><path d="M 3.921875 -4 L 3.382812 -4 C 3.320312 -4 3.265625 -3.945312 3.265625 -3.878906 L 3.265625 -1.816406 C 3.265625 -1.761719 3.246094 -1.726562 3.207031 -1.679688 L 2.535156 -0.855469 L 2.488281 -0.816406 C 2.464844 -0.800781 2.441406 -0.792969 2.40625 -0.792969 L 1.878906 -0.792969 C 1.839844 -0.792969 1.816406 -0.800781 1.800781 -0.816406 L 1.753906 -0.855469 L 1.070312 -1.679688 C 1.03125 -1.726562 1.015625 -1.761719 1.015625 -1.816406 L 1.015625 -3.878906 C 1.015625 -3.945312 0.960938 -4 0.894531 -4 L 0.359375 -4 C 0.296875 -4 0.238281 -3.945312 0.238281 -3.878906 L 0.238281 -1.566406 C 0.238281 -1.488281 0.273438 -1.425781 0.328125 -1.359375 L 1.414062 -0.0976562 C 1.472656 -0.0234375 1.550781 0 1.65625 0 L 2.632812 0 C 2.734375 0 2.808594 -0.0234375 2.871094 -0.0976562 L 3.953125 -1.359375 C 4.007812 -1.425781 4.039062 -1.488281 4.039062 -1.566406 L 4.039062 -3.878906 C 4.039062 -3.945312 3.984375 -4 3.921875 -4 Z M 3.921875 -4 "/></g></g></g><g fill="#ffffff" fill-opacity="1"><g transform="translate(147.0697, 214.860107)"><g><path d="M 1.136719 -2.902344 L 1.390625 -3.144531 C 1.441406 -3.191406 1.472656 -3.207031 1.511719 -3.207031 L 3.625 -3.207031 C 3.6875 -3.207031 3.742188 -3.265625 3.742188 -3.328125 L 3.742188 -3.878906 C 3.742188 -3.945312 3.6875 -4 3.625 -4 L 1.230469 -4 C 1.136719 -4 1.070312 -3.976562 1 -3.902344 L 0.335938 -3.246094 C 0.289062 -3.199219 0.238281 -3.121094 0.238281 -3.039062 L 0.238281 -0.976562 C 0.238281 -0.871094 0.273438 -0.800781 0.335938 -0.734375 L 1 -0.0898438 C 1.054688 -0.03125 1.128906 0 1.207031 0 L 3.625 0 C 3.6875 0 3.742188 -0.0546875 3.742188 -0.121094 L 3.742188 -0.65625 C 3.742188 -0.71875 3.6875 -0.777344 3.625 -0.777344 L 1.519531 -0.777344 C 1.464844 -0.777344 1.425781 -0.792969 1.382812 -0.832031 L 1.105469 -1.136719 C 1.089844 -1.160156 1.078125 -1.183594 1.078125 -1.214844 L 1.078125 -1.625 L 3.230469 -1.625 C 3.296875 -1.625 3.351562 -1.679688 3.351562 -1.742188 L 3.351562 -2.296875 C 3.351562 -2.359375 3.296875 -2.414062 3.230469 -2.414062 L 1.078125 -2.414062 L 1.078125 -2.769531 C 1.078125 -2.824219 1.097656 -2.863281 1.136719 -2.902344 Z M 1.136719 -2.902344 "/></g></g></g><g fill="#ffffff" fill-opacity="1"><g transform="translate(155.053712, 214.860107)"><g><path d="M 0.238281 -0.121094 C 0.238281 -0.0546875 0.296875 0 0.359375 0 L 0.894531 0 C 0.960938 0 1.015625 -0.0546875 1.015625 -0.121094 L 1.015625 -3.207031 L 2.535156 -3.207031 C 2.566406 -3.207031 2.59375 -3.199219 2.617188 -3.183594 L 3.03125 -2.792969 C 3.070312 -2.753906 3.089844 -2.710938 3.089844 -2.65625 L 3.089844 -0.121094 C 3.089844 -0.0546875 3.144531 0 3.207031 0 L 3.742188 0 C 3.808594 0 3.863281 -0.0546875 3.863281 -0.121094 L 3.863281 -2.878906 C 3.863281 -2.960938 3.832031 -3.023438 3.777344 -3.089844 L 2.96875 -3.902344 C 2.902344 -3.96875 2.832031 -4 2.726562 -4 L 0.503906 -4 C 0.359375 -4 0.238281 -3.878906 0.238281 -3.734375 Z M 0.238281 -0.121094 "/></g></g></g><g fill="#ffffff" fill-opacity="1"><g transform="translate(163.15772, 214.860107)"><g><path d="M 3.769531 -3.207031 L 3.046875 -3.910156 C 2.992188 -3.96875 2.921875 -4 2.839844 -4 L 0.359375 -4 C 0.296875 -4 0.238281 -3.945312 0.238281 -3.878906 L 0.238281 -0.121094 C 0.238281 -0.0546875 0.296875 0 0.359375 0 L 2.816406 0 C 2.910156 0 2.976562 -0.0234375 3.046875 -0.0976562 L 3.769531 -0.816406 C 3.816406 -0.863281 3.863281 -0.945312 3.863281 -1.023438 L 3.863281 -2.96875 C 3.863281 -3.070312 3.832031 -3.144531 3.769531 -3.207031 Z M 3.023438 -1.230469 C 3.023438 -1.175781 3.007812 -1.136719 2.96875 -1.097656 L 2.710938 -0.855469 C 2.664062 -0.808594 2.632812 -0.792969 2.59375 -0.792969 L 1.023438 -0.792969 L 1.023438 -3.222656 L 2.585938 -3.222656 C 2.640625 -3.222656 2.679688 -3.207031 2.71875 -3.167969 L 2.960938 -2.910156 L 3 -2.863281 C 3.015625 -2.839844 3.023438 -2.816406 3.023438 -2.785156 Z M 3.023438 -1.230469 "/></g></g></g><g fill="#ffffff" fill-opacity="1"><g transform="translate(171.261727, 214.860107)"><g><path d="M 3.777344 -3.183594 L 3.070312 -3.902344 C 3.007812 -3.96875 2.9375 -4 2.832031 -4 L 1.273438 -4 C 1.167969 -4 1.097656 -3.96875 1.03125 -3.902344 L 0.328125 -3.183594 C 0.273438 -3.128906 0.238281 -3.054688 0.238281 -2.976562 L 0.238281 -0.121094 C 0.238281 -0.0546875 0.296875 0 0.359375 0 L 0.894531 0 C 0.960938 0 1.015625 -0.0546875 1.015625 -0.121094 L 1.015625 -1.3125 L 3.089844 -1.3125 L 3.089844 -0.121094 C 3.089844 -0.0546875 3.144531 0 3.207031 0 L 3.742188 0 C 3.808594 0 3.863281 -0.0546875 3.863281 -0.121094 L 3.863281 -2.976562 C 3.863281 -3.054688 3.832031 -3.128906 3.777344 -3.183594 Z M 1.015625 -2.007812 L 1.015625 -2.769531 C 1.015625 -2.824219 1.03125 -2.863281 1.070312 -2.902344 L 1.328125 -3.144531 L 1.375 -3.183594 C 1.390625 -3.199219 1.414062 -3.207031 1.457031 -3.207031 L 2.648438 -3.207031 C 2.679688 -3.207031 2.703125 -3.199219 2.726562 -3.183594 L 2.777344 -3.144531 L 3.03125 -2.902344 C 3.070312 -2.863281 3.089844 -2.824219 3.089844 -2.769531 L 3.089844 -2.007812 Z M 1.015625 -2.007812 "/></g></g></g><g fill="#ffffff" fill-opacity="1"><g transform="translate(179.365735, 214.860107)"><g/></g></g><g fill="#ffffff" fill-opacity="1"><g transform="translate(185.445739, 214.860107)"><g><path d="M 3.769531 -3.207031 L 3.046875 -3.910156 C 2.992188 -3.96875 2.921875 -4 2.839844 -4 L 0.359375 -4 C 0.296875 -4 0.238281 -3.945312 0.238281 -3.878906 L 0.238281 -0.121094 C 0.238281 -0.0546875 0.296875 0 0.359375 0 L 2.816406 0 C 2.910156 0 2.976562 -0.0234375 3.046875 -0.0976562 L 3.769531 -0.816406 C 3.816406 -0.863281 3.863281 -0.945312 3.863281 -1.023438 L 3.863281 -2.96875 C 3.863281 -3.070312 3.832031 -3.144531 3.769531 -3.207031 Z M 3.023438 -1.230469 C 3.023438 -1.175781 3.007812 -1.136719 2.96875 -1.097656 L 2.710938 -0.855469 C 2.664062 -0.808594 2.632812 -0.792969 2.59375 -0.792969 L 1.023438 -0.792969 L 1.023438 -3.222656 L 2.585938 -3.222656 C 2.640625 -3.222656 2.679688 -3.207031 2.71875 -3.167969 L 2.960938 -2.910156 L 3 -2.863281 C 3.015625 -2.839844 3.023438 -2.816406 3.023438 -2.785156 Z M 3.023438 -1.230469 "/></g></g></g><g fill="#ffffff" fill-opacity="1"><g transform="translate(193.549747, 214.860107)"><g><path d="M 1.136719 -2.902344 L 1.390625 -3.144531 C 1.441406 -3.191406 1.472656 -3.207031 1.511719 -3.207031 L 3.625 -3.207031 C 3.6875 -3.207031 3.742188 -3.265625 3.742188 -3.328125 L 3.742188 -3.878906 C 3.742188 -3.945312 3.6875 -4 3.625 -4 L 1.230469 -4 C 1.136719 -4 1.070312 -3.976562 1 -3.902344 L 0.335938 -3.246094 C 0.289062 -3.199219 0.238281 -3.121094 0.238281 -3.039062 L 0.238281 -0.976562 C 0.238281 -0.871094 0.273438 -0.800781 0.335938 -0.734375 L 1 -0.0898438 C 1.054688 -0.03125 1.128906 0 1.207031 0 L 3.625 0 C 3.6875 0 3.742188 -0.0546875 3.742188 -0.121094 L 3.742188 -0.65625 C 3.742188 -0.71875 3.6875 -0.777344 3.625 -0.777344 L 1.519531 -0.777344 C 1.464844 -0.777344 1.425781 -0.792969 1.382812 -0.832031 L 1.105469 -1.136719 C 1.089844 -1.160156 1.078125 -1.183594 1.078125 -1.214844 L 1.078125 -1.625 L 3.230469 -1.625 C 3.296875 -1.625 3.351562 -1.679688 3.351562 -1.742188 L 3.351562 -2.296875 C 3.351562 -2.359375 3.296875 -2.414062 3.230469 -2.414062 L 1.078125 -2.414062 L 1.078125 -2.769531 C 1.078125 -2.824219 1.097656 -2.863281 1.136719 -2.902344 Z M 1.136719 -2.902344 "/></g></g></g><g fill="#ffffff" fill-opacity="1"><g transform="translate(201.533759, 214.860107)"><g/></g></g><g fill="#ffffff" fill-opacity="1"><g transform="translate(207.613764, 214.860107)"><g><path d="M 3.207031 -2.433594 L 3.742188 -2.433594 C 3.808594 -2.433594 3.863281 -2.488281 3.863281 -2.550781 L 3.863281 -3.039062 C 3.863281 -3.121094 3.832031 -3.191406 3.777344 -3.246094 L 3.070312 -3.96875 C 3.007812 -4.03125 2.9375 -4.0625 2.832031 -4.0625 L 1.289062 -4.0625 C 1.191406 -4.0625 1.128906 -4.039062 1.054688 -3.96875 L 0.335938 -3.246094 C 0.289062 -3.199219 0.238281 -3.121094 0.238281 -3.039062 L 0.238281 -0.96875 C 0.238281 -0.886719 0.289062 -0.808594 0.335938 -0.761719 L 1.054688 -0.0390625 C 1.128906 0.0390625 1.191406 0.0625 1.289062 0.0625 L 2.832031 0.0625 C 2.9375 0.0625 3.007812 0.03125 3.070312 -0.0390625 L 3.777344 -0.761719 C 3.832031 -0.816406 3.863281 -0.886719 3.863281 -0.96875 L 3.863281 -1.457031 C 3.863281 -1.519531 3.808594 -1.574219 3.742188 -1.574219 L 3.207031 -1.574219 C 3.144531 -1.574219 3.089844 -1.519531 3.089844 -1.457031 L 3.089844 -1.175781 C 3.089844 -1.121094 3.078125 -1.078125 3.03125 -1.039062 L 2.777344 -0.800781 C 2.734375 -0.761719 2.703125 -0.734375 2.648438 -0.734375 L 1.511719 -0.734375 C 1.472656 -0.734375 1.441406 -0.753906 1.390625 -0.800781 L 1.136719 -1.039062 C 1.097656 -1.078125 1.078125 -1.121094 1.078125 -1.175781 L 1.078125 -2.832031 C 1.078125 -2.886719 1.097656 -2.929688 1.136719 -2.96875 L 1.390625 -3.207031 C 1.441406 -3.257812 1.472656 -3.273438 1.511719 -3.273438 L 2.648438 -3.273438 C 2.703125 -3.273438 2.734375 -3.246094 2.777344 -3.207031 L 3.03125 -2.96875 C 3.078125 -2.929688 3.089844 -2.886719 3.089844 -2.832031 L 3.089844 -2.550781 C 3.089844 -2.488281 3.144531 -2.433594 3.207031 -2.433594 Z M 3.207031 -2.433594 "/></g></g></g><g fill="#ffffff" fill-opacity="1"><g transform="translate(215.717771, 214.860107)"><g><path d="M 3.777344 -3.183594 L 3.070312 -3.902344 C 3.007812 -3.96875 2.9375 -4 2.832031 -4 L 1.273438 -4 C 1.167969 -4 1.097656 -3.96875 1.03125 -3.902344 L 0.328125 -3.183594 C 0.273438 -3.128906 0.238281 -3.054688 0.238281 -2.976562 L 0.238281 -0.121094 C 0.238281 -0.0546875 0.296875 0 0.359375 0 L 0.894531 0 C 0.960938 0 1.015625 -0.0546875 1.015625 -0.121094 L 1.015625 -1.3125 L 3.089844 -1.3125 L 3.089844 -0.121094 C 3.089844 -0.0546875 3.144531 0 3.207031 0 L 3.742188 0 C 3.808594 0 3.863281 -0.0546875 3.863281 -0.121094 L 3.863281 -2.976562 C 3.863281 -3.054688 3.832031 -3.128906 3.777344 -3.183594 Z M 1.015625 -2.007812 L 1.015625 -2.769531 C 1.015625 -2.824219 1.03125 -2.863281 1.070312 -2.902344 L 1.328125 -3.144531 L 1.375 -3.183594 C 1.390625 -3.199219 1.414062 -3.207031 1.457031 -3.207031 L 2.648438 -3.207031 C 2.679688 -3.207031 2.703125 -3.199219 2.726562 -3.183594 L 2.777344 -3.144531 L 3.03125 -2.902344 C 3.070312 -2.863281 3.089844 -2.824219 3.089844 -2.769531 L 3.089844 -2.007812 Z M 1.015625 -2.007812 "/></g></g></g><g fill="#ffffff" fill-opacity="1"><g transform="translate(223.821779, 214.860107)"><g><path d="M 3.824219 -3.207031 L 3.105469 -3.910156 C 3.046875 -3.96875 2.976562 -4 2.894531 -4 L 0.359375 -4 C 0.296875 -4 0.238281 -3.945312 0.238281 -3.878906 L 0.238281 -0.121094 C 0.238281 -0.0546875 0.296875 0 0.359375 0 L 0.910156 0 C 0.976562 0 1.03125 -0.0546875 1.03125 -0.121094 L 1.03125 -0.878906 L 2.425781 -0.878906 L 2.921875 -0.0703125 C 2.953125 -0.0234375 2.992188 0 3.039062 0 L 3.640625 0 C 3.734375 0 3.785156 -0.0898438 3.734375 -0.167969 L 3.175781 -1.046875 L 3.824219 -1.695312 C 3.871094 -1.742188 3.921875 -1.824219 3.921875 -1.902344 L 3.921875 -2.96875 C 3.921875 -3.070312 3.886719 -3.144531 3.824219 -3.207031 Z M 1.03125 -3.222656 L 2.640625 -3.222656 C 2.695312 -3.222656 2.734375 -3.207031 2.777344 -3.167969 L 3.015625 -2.910156 L 3.054688 -2.863281 C 3.070312 -2.839844 3.078125 -2.816406 3.078125 -2.785156 L 3.078125 -2.113281 C 3.078125 -2.054688 3.0625 -2.015625 3.023438 -1.976562 L 2.769531 -1.734375 C 2.71875 -1.6875 2.6875 -1.671875 2.648438 -1.671875 L 1.03125 -1.671875 Z M 1.03125 -3.222656 "/></g></g></g><g fill="#ffffff" fill-opacity="1"><g transform="translate(231.981796, 214.860107)"><g><path d="M 3.824219 -3.207031 L 3.105469 -3.910156 C 3.046875 -3.96875 2.976562 -4 2.894531 -4 L 0.359375 -4 C 0.296875 -4 0.238281 -3.945312 0.238281 -3.878906 L 0.238281 -0.121094 C 0.238281 -0.0546875 0.296875 0 0.359375 0 L 0.910156 0 C 0.976562 0 1.03125 -0.0546875 1.03125 -0.121094 L 1.03125 -0.878906 L 2.425781 -0.878906 L 2.921875 -0.0703125 C 2.953125 -0.0234375 2.992188 0 3.039062 0 L 3.640625 0 C 3.734375 0 3.785156 -0.0898438 3.734375 -0.167969 L 3.175781 -1.046875 L 3.824219 -1.695312 C 3.871094 -1.742188 3.921875 -1.824219 3.921875 -1.902344 L 3.921875 -2.96875 C 3.921875 -3.070312 3.886719 -3.144531 3.824219 -3.207031 Z M 1.03125 -3.222656 L 2.640625 -3.222656 C 2.695312 -3.222656 2.734375 -3.207031 2.777344 -3.167969 L 3.015625 -2.910156 L 3.054688 -2.863281 C 3.070312 -2.839844 3.078125 -2.816406 3.078125 -2.785156 L 3.078125 -2.113281 C 3.078125 -2.054688 3.0625 -2.015625 3.023438 -1.976562 L 2.769531 -1.734375 C 2.71875 -1.6875 2.6875 -1.671875 2.648438 -1.671875 L 1.03125 -1.671875 Z M 1.03125 -3.222656 "/></g></g></g><g fill="#ffffff" fill-opacity="1"><g transform="translate(240.141813, 214.860107)"><g><path d="M 0.238281 -1.023438 C 0.238281 -0.945312 0.273438 -0.871094 0.328125 -0.816406 L 1.03125 -0.0976562 C 1.097656 -0.03125 1.167969 0 1.273438 0 L 2.832031 0 C 2.9375 0 3.007812 -0.03125 3.070312 -0.0976562 L 3.777344 -0.816406 C 3.832031 -0.871094 3.863281 -0.945312 3.863281 -1.023438 L 3.863281 -2.976562 C 3.863281 -3.054688 3.832031 -3.128906 3.777344 -3.183594 L 3.070312 -3.902344 C 3.007812 -3.96875 2.9375 -4 2.832031 -4 L 1.273438 -4 C 1.167969 -4 1.097656 -3.96875 1.03125 -3.902344 L 0.328125 -3.183594 C 0.273438 -3.128906 0.238281 -3.054688 0.238281 -2.976562 Z M 1.015625 -1.230469 L 1.015625 -2.769531 C 1.015625 -2.824219 1.03125 -2.863281 1.070312 -2.902344 L 1.328125 -3.144531 L 1.375 -3.183594 C 1.390625 -3.199219 1.414062 -3.207031 1.457031 -3.207031 L 2.648438 -3.207031 C 2.679688 -3.207031 2.703125 -3.199219 2.726562 -3.183594 L 2.777344 -3.144531 L 3.03125 -2.902344 C 3.070312 -2.863281 3.089844 -2.824219 3.089844 -2.769531 L 3.089844 -1.230469 C 3.089844 -1.175781 3.070312 -1.136719 3.03125 -1.097656 L 2.777344 -0.855469 L 2.726562 -0.816406 C 2.703125 -0.800781 2.679688 -0.792969 2.648438 -0.792969 L 1.457031 -0.792969 C 1.414062 -0.792969 1.390625 -0.800781 1.375 -0.816406 L 1.328125 -0.855469 L 1.070312 -1.097656 C 1.03125 -1.136719 1.015625 -1.175781 1.015625 -1.230469 Z M 1.015625 -1.230469 "/></g></g></g><g fill="#ffffff" fill-opacity="1"><g transform="translate(248.245821, 214.860107)"><g><path d="M 0.238281 -2.496094 C 0.238281 -2.390625 0.273438 -2.320312 0.335938 -2.257812 L 0.894531 -1.710938 C 0.953125 -1.664062 1.023438 -1.625 1.105469 -1.625 L 2.742188 -1.625 C 2.800781 -1.625 2.839844 -1.609375 2.878906 -1.566406 L 3 -1.425781 C 3.015625 -1.398438 3.023438 -1.375 3.023438 -1.34375 L 3.023438 -1.152344 C 3.023438 -1.097656 3.007812 -1.054688 2.96875 -1.015625 L 2.792969 -0.855469 C 2.742188 -0.816406 2.710938 -0.792969 2.671875 -0.792969 L 0.496094 -0.792969 C 0.433594 -0.792969 0.375 -0.734375 0.375 -0.671875 L 0.375 -0.121094 C 0.375 -0.0546875 0.433594 0 0.496094 0 L 2.894531 0 C 2.992188 0 3.054688 -0.0234375 3.128906 -0.0976562 L 3.769531 -0.734375 C 3.816406 -0.785156 3.863281 -0.863281 3.863281 -0.945312 L 3.863281 -1.609375 C 3.863281 -1.710938 3.832031 -1.792969 3.769531 -1.847656 L 3.289062 -2.3125 C 3.230469 -2.359375 3.160156 -2.398438 3.078125 -2.398438 L 1.359375 -2.398438 C 1.304688 -2.398438 1.265625 -2.414062 1.222656 -2.457031 L 1.105469 -2.601562 C 1.089844 -2.625 1.078125 -2.648438 1.078125 -2.679688 L 1.078125 -2.847656 C 1.078125 -2.902344 1.097656 -2.945312 1.136719 -2.984375 L 1.3125 -3.144531 C 1.359375 -3.183594 1.390625 -3.207031 1.433594 -3.207031 L 3.527344 -3.207031 C 3.59375 -3.207031 3.648438 -3.265625 3.648438 -3.328125 L 3.648438 -3.878906 C 3.648438 -3.945312 3.59375 -4 3.527344 -4 L 1.207031 -4 C 1.113281 -4 1.046875 -3.976562 0.976562 -3.902344 L 0.335938 -3.265625 C 0.289062 -3.214844 0.238281 -3.136719 0.238281 -3.054688 Z M 0.238281 -2.496094 "/></g></g></g></svg>