<svg xmlns="http://www.w3.org/2000/svg" xmlns:xlink="http://www.w3.org/1999/xlink" width="500" zoomAndPan="magnify" viewBox="0 0 375 374.999991" height="500" preserveAspectRatio="xMidYMid meet" version="1.0"><defs><clipPath id="5fe3c5227f"><path d="M 42.1875 0 L 333.1875 0 L 333.1875 375 L 42.1875 375 Z M 42.1875 0 " clip-rule="nonzero"/></clipPath></defs><g clip-path="url(#5fe3c5227f)"><path fill="#ffffff" d="M 333.1875 346.632812 C 333.1875 246.589844 267.992188 165.542969 187.6875 165.542969 C 107.382812 165.542969 42.1875 246.589844 42.1875 346.632812 C 42.1875 362.230469 107.382812 374.949219 187.6875 374.949219 C 267.992188 374.949219 333.1875 362.230469 333.1875 346.632812 Z M 187.6875 0.0507812 C 231.492188 0.0507812 266.972656 35.488281 266.972656 79.234375 C 266.972656 122.984375 231.492188 158.421875 187.6875 158.421875 C 143.882812 158.421875 108.402344 122.984375 108.402344 79.234375 C 108.402344 35.488281 143.882812 0.0507812 187.6875 0.0507812 Z M 187.6875 0.0507812 " fill-opacity="1" fill-rule="evenodd"/></g></svg>